<svg id="effect" enable-background="new 0 0 36 36" height="512" viewBox="0 0 36 36" width="512" xmlns="http://www.w3.org/2000/svg"><path d="m8.377 4.167c6.917 0 11.667-3.583 15-3.583s10.333 1.916 10.333 17.249-9.417 17.583-13.083 17.583c-17.167.001-24.5-31.249-12.25-31.249z" fill="#efefef"/><path d="m29.25 10.75v4h-22.5v-4c0-1.1.9-2 2-2h18.5c1.1 0 2 .9 2 2z" fill="#2fdf84"/><path d="m29.25 14.75v12.5c0 1.1-.9 2-2 2h-18.5c-1.1 0-2-.9-2-2v-12.5z" fill="#f3f3f1"/><path d="m11 8.75h-2.25c-1.1 0-2 .9-2 2v4h2.25v-4c0-1.1.9-2 2-2z" fill="#00b871"/><path d="m9 27.25v-12.5h-2.25v12.5c0 1.1.9 2 2 2h2.25c-1.1 0-2-.9-2-2z" fill="#d5dbe1"/><path d="m27.25 30h-18.5c-1.517 0-2.75-1.233-2.75-2.75v-16.5c0-1.517 1.233-2.75 2.75-2.75h18.5c1.517 0 2.75 1.233 2.75 2.75v16.5c0 1.517-1.233 2.75-2.75 2.75zm-18.5-20.5c-.689 0-1.25.561-1.25 1.25v16.5c0 .689.561 1.25 1.25 1.25h18.5c.689 0 1.25-.561 1.25-1.25v-16.5c0-.689-.561-1.25-1.25-1.25z"/><path d="m6 14h24v1.5h-24z"/><path d="m11 6h1.5v6h-1.5z"/><path d="m23.5 6h1.5v6h-1.5z"/><path d="m20 25h-.75c-.414 0-.75-.336-.75-.75v-4.5c0-.414.336-.75.75-.75h.75c1.654 0 3 1.346 3 3s-1.346 3-3 3zm0-4.5v3c.827 0 1.5-.673 1.5-1.5s-.673-1.5-1.5-1.5z"/><path d="m17 25h-1.5v-4c0-.275-.225-.5-.5-.5s-.5.225-.5.5v4h-1.5v-4c0-1.103.897-2 2-2s2 .897 2 2z"/><path d="m13 22h4v1.5h-4z"/><g fill="#a4afc1"><path d="m32.71 27.539c-.827 0-1.5-.673-1.5-1.5s.673-1.5 1.5-1.5 1.5.673 1.5 1.5-.673 1.5-1.5 1.5zm0-2c-.275 0-.5.225-.5.5s.225.5.5.5.5-.225.5-.5-.225-.5-.5-.5z"/><path d="m27.793 4.294h1v2h-1z" transform="matrix(.707 -.707 .707 .707 4.543 21.557)"/><path d="m31.858 8.359h1v2h-1z" transform="matrix(.707 -.707 .707 .707 2.86 25.622)"/><path d="m31.182 4.794h2v1h-2z" transform="matrix(.707 -.707 .707 .707 5.682 24.306)"/></g></svg>